<?xml version="1.0" encoding="UTF-8" standalone="no"?>
<svg
   xmlns:dc="http://purl.org/dc/elements/1.1/"
   xmlns:cc="http://creativecommons.org/ns#"
   xmlns:rdf="http://www.w3.org/1999/02/22-rdf-syntax-ns#"
   xmlns:svg="http://www.w3.org/2000/svg"
   xmlns="http://www.w3.org/2000/svg"
   style="fill-rule:evenodd;stroke-width:28.22200012;stroke-linejoin:round"
   id="svg86"
   xml:space="preserve"
   preserveAspectRatio="xMidYMid"
   viewBox="0 0 7662.7418 7685.9855"
   height="76.859856mm"
   width="76.627419mm"
   version="1.2"><metadata
   id="metadata90"><rdf:RDF><cc:Work
       rdf:about=""><dc:format>image/svg+xml</dc:format><dc:type
         rdf:resource="http://purl.org/dc/dcmitype/StillImage" /><dc:title></dc:title></cc:Work></rdf:RDF></metadata>
 <defs
   id="defs5"
   class="ClipPathGroup" />
 <defs
   id="defs9"
   class="TextShapeIndex" />
 <defs
   id="defs38"
   class="EmbeddedBulletChars" />
 <defs
   id="defs40"
   class="TextEmbeddedBitmaps" />
 <g
   transform="translate(1244.7874,192.6585)"
   id="g45">
  <g
   class="Master_Slide"
   id="id2">
   <g
   class="Background"
   id="bg-id2" />
   <g
   class="BackgroundObjects"
   id="bo-id2" />
  </g>
 </g>
 <rect
   y="17.380154"
   x="17.380154"
   height="7651.2251"
   width="7627.9814"
   id="rect897"
   style="opacity:1;fill:#ff6600;stroke:#000000;stroke-width:34.76030731;stroke-miterlimit:4;stroke-dasharray:none" />
<g
   id="g1052"><g
   id="g1015"
   transform="matrix(-1,0,0,1,6478.2567,192.6585)"><path
     style="fill:#0000ff;stroke:none"
     d="M 3806,5300 1903,2977 v -676 l -125,-153 c 0,0 -42,-30 -59,0 -17,31 -26,61 0,102 25,42 92,93 100,133 9,41 -8,143 -25,174 -16,31 -84,102 -134,102 -50,0 -100,-30 -125,-71 -25,-41 -175,-245 -175,-245 l -142,10 -301,-400 v -143 h 251 v -276 c 0,0 66,-379 426,-358 359,21 457,359 516,410 59,52 2173,3121 2173,3121 z"
     id="path1011" /><path
     style="color:#000000;font-style:normal;font-variant:normal;font-weight:normal;font-stretch:normal;font-size:medium;line-height:normal;font-family:sans-serif;font-variant-ligatures:normal;font-variant-position:normal;font-variant-caps:normal;font-variant-numeric:normal;font-variant-alternates:normal;font-feature-settings:normal;text-indent:0;text-align:start;text-decoration:none;text-decoration-line:none;text-decoration-style:solid;text-decoration-color:#000000;letter-spacing:normal;word-spacing:normal;text-transform:none;writing-mode:lr-tb;direction:ltr;text-orientation:mixed;dominant-baseline:auto;baseline-shift:baseline;text-anchor:start;white-space:normal;shape-padding:0;clip-rule:nonzero;display:inline;overflow:visible;visibility:visible;opacity:1;isolation:auto;mix-blend-mode:normal;color-interpolation:sRGB;color-interpolation-filters:linearRGB;solid-color:#000000;solid-opacity:1;vector-effect:none;fill:#0000ff;fill-opacity:1;fill-rule:nonzero;stroke:none;stroke-width:28.22200012;stroke-linecap:butt;stroke-linejoin:miter;stroke-miterlimit:4;stroke-dasharray:none;stroke-dashoffset:0;stroke-opacity:1;color-rendering:auto;image-rendering:auto;shape-rendering:auto;text-rendering:auto;enable-background:accumulate"
     d="m 700.63672,886.91406 c -9.22806,-0.41403 -16.35921,8.00228 -14.43555,17.03711 l 195,912.00003 c 1.17309,5.4839 5.48194,9.7529 10.97656,10.875 l 239.99997,49 c 11.2836,2.3011 20.4244,-9.1524 15.6778,-19.6446 L 712.85547,895.18164 c -2.19351,-4.83484 -6.91493,-8.0295 -12.21875,-8.26758 z"
     id="path1013" /></g><path
   style="fill:none;stroke:none"
   d="m 2161.7874,1367.6585 h 3367 v 4126 h -3367 z"
   id="rect47" /><path
   style="fill:none;stroke:none"
   d="m 1943.7874,1092.6585 h 438 v 964 h -438 z"
   id="rect70" /><g
   id="g1009"
   transform="translate(1244.7874,192.6585)"><path
     id="path49"
     d="M 3806,5300 1903,2977 v -676 l -125,-153 c 0,0 -42,-30 -59,0 -17,31 -26,61 0,102 25,42 92,93 100,133 9,41 -8,143 -25,174 -16,31 -84,102 -134,102 -50,0 -100,-30 -125,-71 -25,-41 -175,-245 -175,-245 l -142,10 -301,-400 v -143 h 251 v -276 c 0,0 66,-379 426,-358 359,21 457,359 516,410 59,52 2173,3121 2173,3121 z"
     style="fill:#0000ff;stroke:none" /><path
     id="path74"
     d="m 700.63672,886.91406 c -9.22806,-0.41403 -16.35921,8.00228 -14.43555,17.03711 l 195,912.00003 c 1.17309,5.4839 5.48194,9.7529 10.97656,10.875 l 239.99997,49 c 11.2836,2.3011 20.4244,-9.1524 15.6778,-19.6446 L 712.85547,895.18164 c -2.19351,-4.83484 -6.91493,-8.0295 -12.21875,-8.26758 z"
     style="color:#000000;font-style:normal;font-variant:normal;font-weight:normal;font-stretch:normal;font-size:medium;line-height:normal;font-family:sans-serif;font-variant-ligatures:normal;font-variant-position:normal;font-variant-caps:normal;font-variant-numeric:normal;font-variant-alternates:normal;font-feature-settings:normal;text-indent:0;text-align:start;text-decoration:none;text-decoration-line:none;text-decoration-style:solid;text-decoration-color:#000000;letter-spacing:normal;word-spacing:normal;text-transform:none;writing-mode:lr-tb;direction:ltr;text-orientation:mixed;dominant-baseline:auto;baseline-shift:baseline;text-anchor:start;white-space:normal;shape-padding:0;clip-rule:nonzero;display:inline;overflow:visible;visibility:visible;opacity:1;isolation:auto;mix-blend-mode:normal;color-interpolation:sRGB;color-interpolation-filters:linearRGB;solid-color:#000000;solid-opacity:1;vector-effect:none;fill:#0000ff;fill-opacity:1;fill-rule:nonzero;stroke:none;stroke-width:28.22200012;stroke-linecap:butt;stroke-linejoin:miter;stroke-miterlimit:4;stroke-dasharray:none;stroke-dashoffset:0;stroke-opacity:1;color-rendering:auto;image-rendering:auto;shape-rendering:auto;text-rendering:auto;enable-background:accumulate" /></g><text
   xml:space="preserve"
   style="font-style:normal;font-variant:normal;font-weight:bold;font-stretch:normal;font-size:802.0402832px;line-height:1.25;font-family:Lato;-inkscape-font-specification:'Lato, Bold';font-variant-ligatures:normal;font-variant-caps:normal;font-variant-numeric:normal;font-feature-settings:normal;text-align:start;letter-spacing:0px;word-spacing:0px;writing-mode:lr-tb;text-anchor:start;fill:#0000ff;fill-opacity:1;stroke:none;stroke-width:565.89013672"
   x="1969.4078"
   y="6410.0698"
   id="text1019"><tspan
     id="tspan1017"
     x="1969.4078"
     y="6410.0698"
     style="font-style:normal;font-variant:normal;font-weight:bold;font-stretch:normal;font-size:802.0402832px;font-family:Lato;-inkscape-font-specification:'Lato, Bold';font-variant-ligatures:normal;font-variant-caps:normal;font-variant-numeric:normal;font-feature-settings:normal;text-align:start;writing-mode:lr-tb;text-anchor:start;fill:#0000ff;stroke-width:565.89013672">Hacker eG</tspan></text>

</g></svg>