<?xml version="1.0" encoding="UTF-8" standalone="no"?>
<svg
   xmlns:dc="http://purl.org/dc/elements/1.1/"
   xmlns:cc="http://creativecommons.org/ns#"
   xmlns:rdf="http://www.w3.org/1999/02/22-rdf-syntax-ns#"
   xmlns:svg="http://www.w3.org/2000/svg"
   xmlns="http://www.w3.org/2000/svg"
   version="1.2"
   width="210mm"
   height="297mm"
   viewBox="0 0 21000 29700"
   preserveAspectRatio="xMidYMid"
   xml:space="preserve"
   id="svg86"
   style="fill-rule:evenodd;stroke-width:28.22200012;stroke-linejoin:round"><metadata
   id="metadata90"><rdf:RDF><cc:Work
       rdf:about=""><dc:format>image/svg+xml</dc:format><dc:type
         rdf:resource="http://purl.org/dc/dcmitype/StillImage" /><dc:title></dc:title><cc:license
         rdf:resource="MIT" /><dc:creator><cc:Agent><dc:title>L3D &lt;l3d@c3woc.de&gt;</dc:title></cc:Agent></dc:creator></cc:Work></rdf:RDF></metadata>
 <defs
   class="ClipPathGroup"
   id="defs5">

</defs>
 <defs
   class="TextShapeIndex"
   id="defs9" />
 <defs
   class="EmbeddedBulletChars"
   id="defs38" />
 <defs
   class="TextEmbeddedBitmaps"
   id="defs40" />
 <g
   id="g45"
   transform="translate(1244.7874,22206.672)">
  <g
   id="id2"
   class="Master_Slide">
   <g
   id="bg-id2"
   class="Background" />
   <g
   id="bo-id2"
   class="BackgroundObjects" />
  </g>
 </g>
 
<g
   style="fill:#000000;stroke:none"
   id="g1015"
   transform="matrix(-4.7811831,0,0,4.7811831,23573.857,-1988.1045)"><path
     style="fill:#000000;stroke:none"
     d="M 3806,5300 1903,2977 v -676 l -125,-153 c 0,0 -42,-30 -59,0 -17,31 -26,61 0,102 25,42 92,93 100,133 9,41 -8,143 -25,174 -16,31 -84,102 -134,102 -50,0 -100,-30 -125,-71 -25,-41 -175,-245 -175,-245 l -142,10 -301,-400 v -143 h 251 v -276 c 0,0 66,-379 426,-358 359,21 457,359 516,410 59,52 2173,3121 2173,3121 z"
     id="path1011" /><path
     style="color:#000000;font-style:normal;font-variant:normal;font-weight:normal;font-stretch:normal;font-size:medium;line-height:normal;font-family:sans-serif;font-variant-ligatures:normal;font-variant-position:normal;font-variant-caps:normal;font-variant-numeric:normal;font-variant-alternates:normal;font-feature-settings:normal;text-indent:0;text-align:start;text-decoration:none;text-decoration-line:none;text-decoration-style:solid;text-decoration-color:#000000;letter-spacing:normal;word-spacing:normal;text-transform:none;writing-mode:lr-tb;direction:ltr;text-orientation:mixed;dominant-baseline:auto;baseline-shift:baseline;text-anchor:start;white-space:normal;shape-padding:0;clip-rule:nonzero;display:inline;overflow:visible;visibility:visible;opacity:1;isolation:auto;mix-blend-mode:normal;color-interpolation:sRGB;color-interpolation-filters:linearRGB;solid-color:#000000;solid-opacity:1;vector-effect:none;fill:#000000;fill-opacity:1;fill-rule:nonzero;stroke:none;stroke-width:28.22200012;stroke-linecap:butt;stroke-linejoin:miter;stroke-miterlimit:4;stroke-dasharray:none;stroke-dashoffset:0;stroke-opacity:1;color-rendering:auto;image-rendering:auto;shape-rendering:auto;text-rendering:auto;enable-background:accumulate"
     d="m 700.63672,886.91406 c -9.22806,-0.41403 -16.35921,8.00228 -14.43555,17.03711 l 195,912.00003 c 1.17309,5.4839 5.48194,9.7529 10.97656,10.875 l 239.99997,49 c 11.2836,2.3011 20.4244,-9.1524 15.6778,-19.6446 L 712.85547,895.18164 c -2.19351,-4.83484 -6.91493,-8.0295 -12.21875,-8.26758 z"
     id="path1013" /></g><path
   style="fill:none;stroke:none;stroke-width:134.93455505"
   d="M 2936.0279,3629.7853 H 19034.271 V 23356.94 H 2936.0279 Z"
   id="rect47" /><path
   style="fill:none;stroke:none;stroke-width:134.93455505"
   d="M 1893.73,2314.9599 H 3987.8882 V 6924.0205 H 1893.73 Z"
   id="rect70" /><g
   style="fill:#000000;stroke:none"
   id="g1009"
   transform="matrix(4.7811831,0,0,4.7811831,-1456.1424,-1925.538)"><path
     id="path49"
     d="M 3806,5300 1903,2977 v -676 l -125,-153 c 0,0 -42,-30 -59,0 -17,31 -26,61 0,102 25,42 92,93 100,133 9,41 -8,143 -25,174 -16,31 -84,102 -134,102 -50,0 -100,-30 -125,-71 -25,-41 -175,-245 -175,-245 l -142,10 -301,-400 v -143 h 251 v -276 c 0,0 66,-379 426,-358 359,21 457,359 516,410 59,52 2173,3121 2173,3121 z"
     style="fill:#000000;stroke:none" /><path
     id="path74"
     d="m 700.63672,886.91406 c -9.22806,-0.41403 -16.35921,8.00228 -14.43555,17.03711 l 195,912.00003 c 1.17309,5.4839 5.48194,9.7529 10.97656,10.875 l 239.99997,49 c 11.2836,2.3011 20.4244,-9.1524 15.6778,-19.6446 L 712.85547,895.18164 c -2.19351,-4.83484 -6.91493,-8.0295 -12.21875,-8.26758 z"
     style="color:#000000;font-style:normal;font-variant:normal;font-weight:normal;font-stretch:normal;font-size:medium;line-height:normal;font-family:sans-serif;font-variant-ligatures:normal;font-variant-position:normal;font-variant-caps:normal;font-variant-numeric:normal;font-variant-alternates:normal;font-feature-settings:normal;text-indent:0;text-align:start;text-decoration:none;text-decoration-line:none;text-decoration-style:solid;text-decoration-color:#000000;letter-spacing:normal;word-spacing:normal;text-transform:none;writing-mode:lr-tb;direction:ltr;text-orientation:mixed;dominant-baseline:auto;baseline-shift:baseline;text-anchor:start;white-space:normal;shape-padding:0;clip-rule:nonzero;display:inline;overflow:visible;visibility:visible;opacity:1;isolation:auto;mix-blend-mode:normal;color-interpolation:sRGB;color-interpolation-filters:linearRGB;solid-color:#000000;solid-opacity:1;vector-effect:none;fill:#000000;fill-opacity:1;fill-rule:nonzero;stroke:none;stroke-width:28.22200012;stroke-linecap:butt;stroke-linejoin:miter;stroke-miterlimit:4;stroke-dasharray:none;stroke-dashoffset:0;stroke-opacity:1;color-rendering:auto;image-rendering:auto;shape-rendering:auto;text-rendering:auto;enable-background:accumulate" /></g><g
   transform="matrix(4.7811831,0,0,4.7811831,-7399.8735,-108162.34)"
   id="text1019"
   style="font-style:normal;font-variant:normal;font-weight:bold;font-stretch:normal;font-size:802.0402832px;line-height:1.25;font-family:Lato;-inkscape-font-specification:'Lato, Bold';font-variant-ligatures:normal;font-variant-caps:normal;font-variant-numeric:normal;font-feature-settings:normal;text-align:start;letter-spacing:0px;word-spacing:0px;writing-mode:lr-tb;text-anchor:start;fill:#000000;fill-opacity:1;stroke:none;stroke-width:565.89013672"
   aria-label="Hacker eG"><path
     id="path844"
     style="font-style:normal;font-variant:normal;font-weight:bold;font-stretch:normal;font-size:802.0402832px;font-family:Lato;-inkscape-font-specification:'Lato, Bold';font-variant-ligatures:normal;font-variant-caps:normal;font-variant-numeric:normal;font-feature-settings:normal;text-align:start;writing-mode:lr-tb;text-anchor:start;fill:#000000;stroke:none;stroke-width:565.89013672"
     d="m 2522.8156,27844.207 v 579.875 h -108.2754 v -253.445 h -272.2927 v 253.445 h -108.2754 v -579.875 h 108.2754 v 249.434 h 272.2927 v -249.434 z" /><path
     id="path846"
     style="font-style:normal;font-variant:normal;font-weight:bold;font-stretch:normal;font-size:802.0402832px;font-family:Lato;-inkscape-font-specification:'Lato, Bold';font-variant-ligatures:normal;font-variant-caps:normal;font-variant-numeric:normal;font-feature-settings:normal;text-align:start;writing-mode:lr-tb;text-anchor:start;fill:#000000;stroke:none;stroke-width:565.89013672"
     d="m 2843.4814,28248.435 q -42.9092,2.005 -72.1837,7.62 -29.2744,5.213 -46.9193,13.634 -17.6449,8.422 -25.2643,19.65 -7.6194,11.229 -7.6194,24.462 0,26.067 15.2388,37.295 15.6398,11.229 40.503,11.229 30.4776,0 52.5337,-10.828 22.4571,-11.228 43.7112,-33.685 z m -226.9774,-178.454 q 70.9805,-64.965 170.8345,-64.965 36.0918,0 64.5643,12.031 28.4724,11.629 48.1224,32.883 19.65,20.853 29.6755,50.128 10.4265,29.274 10.4265,64.163 v 259.861 h -44.9142 q -14.0358,0 -21.6551,-4.01 -7.6194,-4.411 -12.0306,-17.244 l -8.8225,-29.676 q -15.6398,14.036 -30.4775,24.864 -14.8378,10.426 -30.8786,17.645 -16.0408,7.218 -34.4877,10.827 -18.0459,4.01 -40.102,4.01 -26.0663,0 -48.1224,-6.817 -22.0561,-7.218 -38.0969,-21.254 -16.0408,-14.036 -24.8633,-34.889 -8.8224,-20.853 -8.8224,-48.523 0,-15.64 5.2132,-30.879 5.2133,-15.64 16.8429,-29.675 12.0306,-14.036 30.8785,-26.468 18.848,-12.431 46.1173,-21.655 27.6704,-9.223 64.1633,-14.837 36.4928,-6.016 83.4122,-7.219 v -24.061 q 0,-41.305 -17.6449,-60.955 -17.6449,-20.051 -50.9296,-20.051 -24.0612,0 -40.102,5.614 -15.6398,5.614 -27.6704,12.833 -12.0306,6.817 -22.0561,12.431 -9.6245,5.615 -21.6551,5.615 -10.4265,0 -17.6449,-5.214 -7.2183,-5.614 -11.6296,-12.832 z" /><path
     id="path848"
     style="font-style:normal;font-variant:normal;font-weight:bold;font-stretch:normal;font-size:802.0402832px;font-family:Lato;-inkscape-font-specification:'Lato, Bold';font-variant-ligatures:normal;font-variant-caps:normal;font-variant-numeric:normal;font-feature-settings:normal;text-align:start;writing-mode:lr-tb;text-anchor:start;fill:#000000;stroke:none;stroke-width:565.89013672"
     d="m 3328.1643,28099.657 q -4.4112,5.614 -8.8224,8.822 -4.0102,3.208 -12.0306,3.208 -7.6194,0 -14.8378,-4.411 -7.2183,-4.812 -17.2438,-10.426 -10.0255,-6.016 -24.0613,-10.427 -13.6346,-4.812 -34.0867,-4.812 -26.0663,0 -45.7163,9.624 -19.6499,9.224 -32.8836,26.869 -12.8327,17.645 -19.249,42.909 -6.4163,24.863 -6.4163,56.544 0,32.883 6.8173,58.549 7.2184,25.665 20.4521,43.31 13.2336,17.244 32.0816,26.467 18.8479,8.823 42.5081,8.823 23.6602,0 38.0969,-5.615 14.8378,-6.015 24.8633,-12.832 10.0255,-7.219 17.2438,-12.833 7.6194,-6.015 16.8429,-6.015 12.0306,0 18.0459,9.223 l 28.4724,36.092 q -16.4418,19.249 -35.6908,32.483 -19.2489,12.832 -40.102,20.853 -20.452,7.619 -42.5081,10.827 -21.6551,3.208 -43.3102,3.208 -38.0969,0 -71.7826,-14.035 -33.6857,-14.437 -58.95,-41.706 -25.2642,-27.27 -40.102,-66.57 -14.4367,-39.701 -14.4367,-90.229 0,-45.316 12.8326,-83.814 13.2337,-38.899 38.498,-66.97 25.2642,-28.472 62.5591,-44.513 37.2949,-16.041 85.8183,-16.041 46.1173,0 80.6051,14.838 34.8887,14.838 62.5591,42.508 z" /><path
     id="path850"
     style="font-style:normal;font-variant:normal;font-weight:bold;font-stretch:normal;font-size:802.0402832px;font-family:Lato;-inkscape-font-specification:'Lato, Bold';font-variant-ligatures:normal;font-variant-caps:normal;font-variant-numeric:normal;font-feature-settings:normal;text-align:start;writing-mode:lr-tb;text-anchor:start;fill:#000000;stroke:none;stroke-width:565.89013672"
     d="m 3519.3883,27828.166 v 341.268 h 18.4469 q 10.0255,0 15.6398,-2.406 6.0153,-2.807 12.0306,-10.827 l 102.2601,-126.322 q 6.4164,-8.421 14.0358,-12.832 8.0204,-4.412 20.452,-4.412 h 90.6305 l -127.9254,152.789 q -13.6347,18.046 -29.6755,27.67 8.4214,6.016 14.8378,14.036 6.8173,8.021 12.8326,17.244 l 137.1489,199.708 h -89.4275 q -11.6296,0 -20.051,-3.609 -8.4214,-4.01 -14.0357,-14.036 l -105.0673,-155.997 q -5.6143,-9.223 -11.6296,-12.03 -6.0153,-2.807 -18.0459,-2.807 h -22.4571 v 188.479 h -99.052 v -595.916 z" /><path
     id="path852"
     style="font-style:normal;font-variant:normal;font-weight:bold;font-stretch:normal;font-size:802.0402832px;font-family:Lato;-inkscape-font-specification:'Lato, Bold';font-variant-ligatures:normal;font-variant-caps:normal;font-variant-numeric:normal;font-feature-settings:normal;text-align:start;writing-mode:lr-tb;text-anchor:start;fill:#000000;stroke:none;stroke-width:565.89013672"
     d="m 4094.2632,28171.038 q 0,-19.249 -5.6143,-36.091 -5.2133,-17.244 -16.0408,-30.077 -10.8276,-12.833 -27.6704,-20.051 -16.4418,-7.619 -38.4979,-7.619 -42.9092,0 -67.7724,24.462 -24.4623,24.462 -31.2796,69.376 z m -188.8805,59.752 q 2.4061,31.681 11.2286,54.94 8.8224,22.858 23.2591,38.097 14.4367,14.838 34.0867,22.457 20.051,7.218 44.1122,7.218 24.0613,0 41.3051,-5.614 17.6449,-5.614 30.4776,-12.431 13.2336,-6.818 22.8581,-12.432 10.0255,-5.614 19.249,-5.614 12.4316,0 18.4469,9.223 l 28.4724,36.092 q -16.4418,19.249 -36.8938,32.483 -20.4521,12.832 -42.9092,20.853 -22.0561,7.619 -45.3153,10.827 -22.8581,3.208 -44.5132,3.208 -42.9091,0 -79.803,-14.035 -36.8939,-14.437 -64.1632,-42.107 -27.2694,-28.072 -42.9092,-68.976 -15.6398,-41.305 -15.6398,-95.443 0,-42.107 13.6347,-79.001 13.6347,-37.295 38.899,-64.564 25.6653,-27.67 62.1581,-43.711 36.8938,-16.041 83.0112,-16.041 38.8989,0 71.7826,12.432 32.8836,12.431 56.5438,36.493 23.6602,23.66 36.8939,58.548 13.6346,34.488 13.6346,79.001 0,22.458 -4.8122,30.478 -4.8122,7.619 -18.4469,7.619 z" /><path
     id="path854"
     style="font-style:normal;font-variant:normal;font-weight:bold;font-stretch:normal;font-size:802.0402832px;font-family:Lato;-inkscape-font-specification:'Lato, Bold';font-variant-ligatures:normal;font-variant-caps:normal;font-variant-numeric:normal;font-feature-settings:normal;text-align:start;writing-mode:lr-tb;text-anchor:start;fill:#000000;stroke:none;stroke-width:565.89013672"
     d="m 4350.2768,28084.017 q 19.249,-36.894 45.7163,-57.747 26.4673,-21.254 62.5592,-21.254 28.4724,0 45.7163,12.432 l -6.4164,74.188 q -2.0051,7.219 -6.0153,10.427 -3.6091,2.807 -10.0255,2.807 -6.0153,0 -18.0459,-2.005 -11.6296,-2.005 -22.8581,-2.005 -16.4419,0 -29.2745,4.812 -12.8326,4.812 -23.2592,14.036 -10.0255,8.822 -18.0459,21.655 -7.6194,12.832 -14.4367,29.274 v 253.445 h -99.052 v -411.447 h 58.148 q 15.2387,0 21.254,5.615 6.0153,5.213 8.0204,19.249 z" /><path
     id="path856"
     style="font-style:normal;font-variant:normal;font-weight:bold;font-stretch:normal;font-size:802.0402832px;font-family:Lato;-inkscape-font-specification:'Lato, Bold';font-variant-ligatures:normal;font-variant-caps:normal;font-variant-numeric:normal;font-feature-settings:normal;text-align:start;writing-mode:lr-tb;text-anchor:start;fill:#000000;stroke:none;stroke-width:565.89013672"
     d="m 4998.1249,28171.038 q 0,-19.249 -5.6143,-36.091 -5.2133,-17.244 -16.0408,-30.077 -10.8276,-12.833 -27.6704,-20.051 -16.4418,-7.619 -38.4979,-7.619 -42.9092,0 -67.7724,24.462 -24.4623,24.462 -31.2796,69.376 z m -188.8805,59.752 q 2.4061,31.681 11.2285,54.94 8.8225,22.858 23.2592,38.097 14.4367,14.838 34.0867,22.457 20.051,7.218 44.1122,7.218 24.0613,0 41.3051,-5.614 17.6449,-5.614 30.4775,-12.431 13.2337,-6.818 22.8582,-12.432 10.0255,-5.614 19.249,-5.614 12.4316,0 18.4469,9.223 l 28.4724,36.092 q -16.4418,19.249 -36.8938,32.483 -20.4521,12.832 -42.9092,20.853 -22.0561,7.619 -45.3153,10.827 -22.8581,3.208 -44.5132,3.208 -42.9092,0 -79.803,-14.035 -36.8939,-14.437 -64.1632,-42.107 -27.2694,-28.072 -42.9092,-68.976 -15.6398,-41.305 -15.6398,-95.443 0,-42.107 13.6347,-79.001 13.6347,-37.295 38.899,-64.564 25.6653,-27.67 62.1581,-43.711 36.8938,-16.041 83.0112,-16.041 38.8989,0 71.7826,12.432 32.8836,12.431 56.5438,36.493 23.6602,23.66 36.8939,58.548 13.6346,34.488 13.6346,79.001 0,22.458 -4.8122,30.478 -4.8122,7.619 -18.4469,7.619 z" /><path
     id="path858"
     style="font-style:normal;font-variant:normal;font-weight:bold;font-stretch:normal;font-size:802.0402832px;font-family:Lato;-inkscape-font-specification:'Lato, Bold';font-variant-ligatures:normal;font-variant-caps:normal;font-variant-numeric:normal;font-feature-settings:normal;text-align:start;writing-mode:lr-tb;text-anchor:start;fill:#000000;stroke:none;stroke-width:565.89013672"
     d="m 5652.7903,28133.342 v 234.597 q -44.1122,32.483 -94.2397,47.722 -49.7265,14.837 -106.6714,14.837 -70.9805,0 -128.7274,-22.056 -57.3459,-22.056 -98.25,-61.356 -40.503,-39.3 -62.5591,-93.839 -22.0561,-54.538 -22.0561,-119.103 0,-65.366 21.2541,-119.905 21.254,-54.538 60.153,-93.838 39.3,-39.3 95.0418,-60.955 55.7418,-21.655 125.1182,-21.655 35.2898,0 65.7673,5.614 30.8786,5.614 56.9449,15.64 26.4673,9.624 48.1224,23.66 21.6551,14.036 39.701,30.878 l -30.8785,48.925 q -7.2184,11.629 -18.848,14.437 -11.6296,2.406 -25.2643,-6.016 -13.2336,-7.619 -26.4673,-15.238 -13.2336,-7.62 -29.6755,-13.234 -16.0408,-5.614 -36.4928,-9.224 -20.051,-3.609 -46.5183,-3.609 -42.9092,0 -77.7979,14.437 -34.4878,14.437 -58.95,41.305 -24.4622,26.868 -37.6959,64.564 -13.2337,37.696 -13.2337,84.214 0,49.727 14.0357,89.027 14.4368,38.899 40.1021,66.168 26.0663,26.869 62.5591,41.305 36.4928,14.036 81.4071,14.036 32.0816,0 57.3459,-6.817 25.2642,-6.818 49.3254,-18.447 v -105.068 h -72.9856 q -10.4265,0 -16.4419,-5.614 -5.6142,-6.015 -5.6142,-14.437 v -60.955 z" /></g></svg>