<?xml version="1.0" encoding="UTF-8" standalone="no"?>
<svg
   xmlns:dc="http://purl.org/dc/elements/1.1/"
   xmlns:cc="http://creativecommons.org/ns#"
   xmlns:rdf="http://www.w3.org/1999/02/22-rdf-syntax-ns#"
   xmlns:svg="http://www.w3.org/2000/svg"
   xmlns="http://www.w3.org/2000/svg"
   xmlns:sodipodi="http://sodipodi.sourceforge.net/DTD/sodipodi-0.dtd"
   xmlns:inkscape="http://www.inkscape.org/namespaces/inkscape"
   style="enable-background:new"
   id="svg8"
   version="1.1"
   viewBox="0 0 210.00001 296.99996"
   height="297mm"
   width="210mm"
   sodipodi:docname="textlogo_wtf_a4.svg"
   inkscape:version="0.92.4 5da689c313, 2019-01-14">
  <sodipodi:namedview
     pagecolor="#ffffff"
     bordercolor="#666666"
     borderopacity="1"
     objecttolerance="10"
     gridtolerance="10"
     guidetolerance="10"
     inkscape:pageopacity="0"
     inkscape:pageshadow="2"
     inkscape:window-width="2556"
     inkscape:window-height="1388"
     id="namedview59"
     showgrid="false"
     inkscape:zoom="0.2102413"
     inkscape:cx="-1548.5333"
     inkscape:cy="561.25984"
     inkscape:window-x="0"
     inkscape:window-y="24"
     inkscape:window-maximized="0"
     inkscape:current-layer="svg8" />
  <title
     id="title820">Werkskooperative der Technik Freund*Innen</title>
  <defs
     id="defs2">
    <filter
       id="filter886"
       style="color-interpolation-filters:sRGB">
      <feBlend
         id="feBlend888"
         in2="BackgroundImage"
         mode="color-dodge" />
    </filter>
  </defs>
  <metadata
     id="metadata5">
    <rdf:RDF>
      <cc:Work
         rdf:about="">
        <dc:format>image/svg+xml</dc:format>
        <dc:type
           rdf:resource="http://purl.org/dc/dcmitype/StillImage" />
        <dc:title>Werkskooperative der Technik Freund*Innen</dc:title>
        <cc:license
           rdf:resource="http://creativecommons.org/licenses/by/4.0/" />
        <dc:creator>
          <cc:Agent>
            <dc:title>L3D &lt;l3d@c3woc.de&gt;</dc:title>
          </cc:Agent>
        </dc:creator>
      </cc:Work>
      <cc:License
         rdf:about="http://creativecommons.org/licenses/by/4.0/">
        <cc:permits
           rdf:resource="http://creativecommons.org/ns#Reproduction" />
        <cc:permits
           rdf:resource="http://creativecommons.org/ns#Distribution" />
        <cc:requires
           rdf:resource="http://creativecommons.org/ns#Notice" />
        <cc:requires
           rdf:resource="http://creativecommons.org/ns#Attribution" />
        <cc:permits
           rdf:resource="http://creativecommons.org/ns#DerivativeWorks" />
      </cc:License>
    </rdf:RDF>
  </metadata>
  <g
     style="filter:url(#filter886)"
     transform="translate(-14.27496,144.2006)"
     id="layer1">
    <path
       d="M 168.33195,-55.341799 H 134.07448 V 5.3673123 H 120.74323 V -55.341799 H 71.792919 L 68.28991,-66.29424 h 100.04204 z"
       style="font-style:normal;font-variant:normal;font-weight:bold;font-stretch:normal;font-size:10.58333302px;line-height:1.25;font-family:Lato;-inkscape-font-specification:'Lato Bold';letter-spacing:0px;word-spacing:0px;fill:#000000;fill-opacity:1;stroke:none;stroke-width:2.47792673"
       id="path854" />
    <path
       d="m 157.63018,-39.959505 v 15.746619 h 24.94525 v 7.910175 H 157.63018 V 5.3673123 H 142.69217 V -47.832799 h 43.5624 v 7.873294 z"
       style="font-style:normal;font-variant:normal;font-weight:bold;font-stretch:normal;font-size:10.58333302px;line-height:1.25;font-family:Lato;-inkscape-font-specification:'Lato Bold';letter-spacing:0px;word-spacing:0px;fill:#000000;fill-opacity:1;stroke:none;stroke-width:1.83956385"
       id="path856" />
    <g
       transform="matrix(2.8523021,0,0,2.8523021,-18.329142,-350.34006)"
       id="text823"
       style="font-style:normal;font-variant:normal;font-weight:normal;font-stretch:normal;font-size:10.77005577px;line-height:1.25;font-family:'Tw Cen MT';-inkscape-font-specification:'Tw Cen MT, Normal';font-variant-ligatures:normal;font-variant-caps:normal;font-variant-numeric:normal;text-align:start;letter-spacing:0px;word-spacing:0px;writing-mode:lr-tb;text-anchor:start;fill:#000000;fill-opacity:1;stroke:none;stroke-width:0.26925138"
       aria-label="eG">
      <path
         id="path833"
         style="font-style:normal;font-variant:normal;font-weight:bold;font-stretch:normal;font-family:Lato;-inkscape-font-specification:'Lato Bold';stroke-width:0.26925138"
         d="m 69.123749,121.19627 q 0,-0.25848 -0.07539,-0.48465 -0.07001,-0.23156 -0.215401,-0.40388 -0.145396,-0.17232 -0.371567,-0.26925 -0.220786,-0.10232 -0.516963,-0.10232 -0.576198,0 -0.91007,0.32849 -0.328486,0.32849 -0.420032,0.93161 z m -2.536348,0.80237 q 0.03231,0.42542 0.150781,0.73775 0.11847,0.30694 0.312331,0.51158 0.193861,0.19924 0.457728,0.30156 0.269251,0.0969 0.592353,0.0969 0.323102,0 0.554658,-0.0754 0.236941,-0.0754 0.409262,-0.16694 0.177706,-0.0915 0.306946,-0.16693 0.134626,-0.0754 0.258482,-0.0754 0.166936,0 0.247711,0.12385 l 0.382337,0.48465 q -0.220786,0.25849 -0.495423,0.43619 -0.274636,0.17232 -0.576197,0.28002 -0.296177,0.10232 -0.608509,0.1454 -0.306946,0.0431 -0.597738,0.0431 -0.576198,0 -1.07162,-0.18848 -0.495423,-0.19386 -0.861605,-0.56543 -0.366182,-0.37695 -0.576198,-0.92622 -0.210016,-0.55466 -0.210016,-1.28164 0,-0.56542 0.183091,-1.06085 0.183091,-0.5008 0.522348,-0.86699 0.344642,-0.37156 0.834679,-0.58696 0.495423,-0.21541 1.114701,-0.21541 0.522348,0 0.96392,0.16694 0.441572,0.16694 0.759289,0.49004 0.317716,0.31771 0.495422,0.78621 0.183091,0.46311 0.183091,1.06085 0,0.30156 -0.06462,0.40926 -0.06462,0.10232 -0.247711,0.10232 z" />
      <path
         id="path835"
         style="font-style:normal;font-variant:normal;font-weight:bold;font-stretch:normal;font-family:Lato;-inkscape-font-specification:'Lato Bold';stroke-width:0.26925138"
         d="m 77.928242,120.69008 v 3.15024 q -0.592353,0.43619 -1.265482,0.64082 -0.667743,0.19924 -1.432417,0.19924 -0.95315,0 -1.728594,-0.29617 -0.770059,-0.29618 -1.319332,-0.82391 -0.543888,-0.52774 -0.840064,-1.2601 -0.296177,-0.73236 -0.296177,-1.59935 0,-0.87776 0.285407,-1.61013 0.285406,-0.73236 0.807754,-1.26009 0.527733,-0.52773 1.276252,-0.81853 0.748518,-0.29079 1.680128,-0.29079 0.473883,0 0.883145,0.0754 0.414647,0.0754 0.764674,0.21002 0.355412,0.12924 0.646203,0.31772 0.290792,0.18847 0.533118,0.41464 l -0.414647,0.65698 q -0.09693,0.15616 -0.253097,0.19386 -0.156165,0.0323 -0.339256,-0.0808 -0.177706,-0.10231 -0.355412,-0.20463 -0.177706,-0.10232 -0.398492,-0.17771 -0.215401,-0.0754 -0.490038,-0.12385 -0.269251,-0.0485 -0.624663,-0.0485 -0.576198,0 -1.044695,0.19386 -0.463113,0.19387 -0.7916,0.55466 -0.328486,0.3608 -0.506192,0.86699 -0.177706,0.50619 -0.177706,1.13086 0,0.66774 0.188476,1.19547 0.193861,0.52235 0.538503,0.88853 0.350027,0.3608 0.840064,0.55466 0.490038,0.18848 1.093161,0.18848 0.430802,0 0.770059,-0.0915 0.339256,-0.0915 0.662358,-0.24771 v -1.41088 h -0.980075 q -0.140011,0 -0.220786,-0.0754 -0.07539,-0.0808 -0.07539,-0.19386 v -0.81852 z" />
    </g>
    <path
       id="rect848"
       d="M 60.350307,15.837885 H 203.90411 V 30.462693 H 64.88874 Z"
       style="opacity:1;vector-effect:none;fill:#666666;fill-opacity:1;stroke:none;stroke-width:2.2706511;stroke-linecap:round;stroke-linejoin:miter;stroke-miterlimit:4;stroke-dasharray:none;stroke-dashoffset:0;stroke-opacity:1;paint-order:stroke markers fill" />
    <g
       transform="matrix(2.7697791,0,0,2.7697791,-12.443999,-339.39387)"
       id="text827"
       style="font-style:normal;font-variant:normal;font-weight:normal;font-stretch:normal;font-size:4.27259159px;line-height:1.25;font-family:'Tw Cen MT';-inkscape-font-specification:'Tw Cen MT, Normal';font-variant-ligatures:normal;font-variant-caps:normal;font-variant-numeric:normal;text-align:start;letter-spacing:0px;word-spacing:0px;writing-mode:lr-tb;text-anchor:start;fill:#f9f9f9;fill-opacity:1;stroke:none;stroke-width:0.1068148"
       aria-label="Werkkooperative der">
      <path
         id="path838"
         style="font-style:normal;font-variant:normal;font-weight:bold;font-stretch:normal;font-family:Lato;-inkscape-font-specification:'Lato Bold';fill:#f9f9f9;stroke-width:0.1068148"
         d="m 35.114077,129.15811 -0.959196,3.08908 h -0.51912 l -0.67507,-2.11066 q -0.02777,-0.0769 -0.05127,-0.18799 -0.01282,0.0534 -0.02563,0.1004 -0.01282,0.047 -0.02777,0.0876 l -0.681479,2.11066 h -0.521256 l -0.95706,-3.08908 h 0.480666 q 0.07477,0 0.123905,0.0363 0.05127,0.0342 0.06836,0.094 l 0.525529,1.8479 q 0.01709,0.0684 0.03204,0.14954 0.01709,0.079 0.03418,0.16663 0.01709,-0.0897 0.03632,-0.16877 0.02136,-0.079 0.04486,-0.1474 l 0.606708,-1.8479 q 0.01709,-0.0491 0.06623,-0.0897 0.05127,-0.0406 0.123905,-0.0406 h 0.168768 q 0.07477,0 0.121769,0.0363 0.047,0.0363 0.0705,0.094 l 0.604572,1.8479 q 0.04486,0.13245 0.08118,0.30549 0.02777,-0.16877 0.06195,-0.30549 l 0.525529,-1.8479 q 0.01282,-0.0534 0.06409,-0.0919 0.05341,-0.0385 0.126041,-0.0385 z" />
      <path
         id="path840"
         style="font-style:normal;font-variant:normal;font-weight:bold;font-stretch:normal;font-family:Lato;-inkscape-font-specification:'Lato Bold';fill:#f9f9f9;stroke-width:0.1068148"
         d="m 36.562477,130.89919 q 0,-0.10254 -0.02991,-0.19227 -0.02777,-0.0919 -0.08545,-0.16022 -0.05768,-0.0684 -0.147405,-0.10681 -0.08759,-0.0406 -0.205084,-0.0406 -0.228584,0 -0.361034,0.13031 -0.130314,0.13031 -0.166631,0.36958 z m -1.006196,0.31831 q 0.01282,0.16877 0.05982,0.29267 0.047,0.12177 0.123905,0.20295 0.07691,0.079 0.181585,0.11963 0.106815,0.0384 0.234993,0.0384 0.128177,0 0.220038,-0.0299 0.094,-0.0299 0.162359,-0.0662 0.0705,-0.0363 0.121768,-0.0662 0.05341,-0.0299 0.102543,-0.0299 0.06623,0 0.09827,0.0491 l 0.151677,0.19227 q -0.08759,0.10254 -0.196539,0.17304 -0.108951,0.0684 -0.228584,0.11109 -0.117496,0.0406 -0.241401,0.0577 -0.121769,0.0171 -0.237129,0.0171 -0.228584,0 -0.425123,-0.0748 -0.196539,-0.0769 -0.341807,-0.22431 -0.145268,-0.14955 -0.228584,-0.36745 -0.08332,-0.22004 -0.08332,-0.50844 0,-0.22431 0.07263,-0.42085 0.07263,-0.19867 0.20722,-0.34394 0.136723,-0.1474 0.331126,-0.23286 0.196539,-0.0854 0.442214,-0.0854 0.20722,0 0.382396,0.0662 0.175177,0.0662 0.301218,0.1944 0.126042,0.12604 0.196539,0.3119 0.07263,0.18372 0.07263,0.42085 0,0.11963 -0.02564,0.16236 -0.02564,0.0406 -0.09827,0.0406 z" />
      <path
         id="path842"
         style="font-style:normal;font-variant:normal;font-weight:bold;font-stretch:normal;font-family:Lato;-inkscape-font-specification:'Lato Bold';fill:#f9f9f9;stroke-width:0.1068148"
         d="m 37.9297,130.43561 q 0.102542,-0.19654 0.243537,-0.30762 0.140996,-0.11323 0.333263,-0.11323 0.151677,0 0.243537,0.0662 l -0.03418,0.39521 q -0.01068,0.0385 -0.03204,0.0555 -0.01923,0.0149 -0.05341,0.0149 -0.03205,0 -0.09613,-0.0107 -0.06195,-0.0107 -0.121768,-0.0107 -0.08759,0 -0.15595,0.0256 -0.06836,0.0256 -0.123905,0.0748 -0.05341,0.047 -0.09613,0.11536 -0.04059,0.0684 -0.07691,0.15595 v 1.35014 h -0.527665 v -2.19184 h 0.309763 q 0.08118,0 0.113223,0.0299 0.03205,0.0278 0.04273,0.10254 z" />
      <path
         id="path844"
         style="font-style:normal;font-variant:normal;font-weight:bold;font-stretch:normal;font-family:Lato;-inkscape-font-specification:'Lato Bold';fill:#f9f9f9;stroke-width:0.1068148"
         d="m 39.553281,129.07266 v 1.81798 h 0.09827 q 0.05341,0 0.08331,-0.0128 0.03205,-0.015 0.06409,-0.0577 l 0.544756,-0.67294 q 0.03418,-0.0449 0.07477,-0.0684 0.04273,-0.0235 0.108951,-0.0235 h 0.482803 l -0.681479,0.81393 q -0.07263,0.0961 -0.158085,0.14741 0.04486,0.032 0.07904,0.0748 0.03632,0.0427 0.06836,0.0919 l 0.730613,1.06387 h -0.476394 q -0.06195,0 -0.106815,-0.0192 -0.04486,-0.0214 -0.07477,-0.0748 L 39.831,131.32218 q -0.02991,-0.0491 -0.06195,-0.0641 -0.03204,-0.015 -0.09613,-0.015 h -0.119633 v 1.00406 h -0.527665 v -3.17453 z" />
      <path
         id="path846"
         style="font-style:normal;font-variant:normal;font-weight:bold;font-stretch:normal;font-family:Lato;-inkscape-font-specification:'Lato Bold';fill:#f9f9f9;stroke-width:0.1068148"
         d="m 41.836973,129.07266 v 1.81798 h 0.09827 q 0.05341,0 0.08332,-0.0128 0.03204,-0.015 0.06409,-0.0577 l 0.544756,-0.67294 q 0.03418,-0.0449 0.07477,-0.0684 0.04273,-0.0235 0.108951,-0.0235 h 0.482803 l -0.681478,0.81393 q -0.07263,0.0961 -0.158086,0.14741 0.04486,0.032 0.07904,0.0748 0.03632,0.0427 0.06836,0.0919 l 0.730614,1.06387 h -0.476394 q -0.06195,0 -0.106815,-0.0192 -0.04486,-0.0214 -0.07477,-0.0748 l -0.559709,-0.83102 q -0.02991,-0.0491 -0.06195,-0.0641 -0.03204,-0.015 -0.09613,-0.015 h -0.119633 v 1.00406 h -0.527665 v -3.17453 z" />
      <path
         id="path848"
         style="font-style:normal;font-variant:normal;font-weight:bold;font-stretch:normal;font-family:Lato;-inkscape-font-specification:'Lato Bold';fill:#f9f9f9;stroke-width:0.1068148"
         d="m 44.451787,130.02117 q 0.243538,0 0.442214,0.079 0.200811,0.079 0.341807,0.22431 0.143132,0.14526 0.220038,0.35462 0.07691,0.20936 0.07691,0.46785 0,0.26063 -0.07691,0.46999 -0.07691,0.20935 -0.220038,0.35676 -0.140996,0.1474 -0.341807,0.22644 -0.198676,0.079 -0.442214,0.079 -0.245674,0 -0.446485,-0.079 -0.200812,-0.079 -0.343944,-0.22644 -0.140996,-0.14741 -0.220038,-0.35676 -0.07691,-0.20936 -0.07691,-0.46999 0,-0.25849 0.07691,-0.46785 0.07904,-0.20936 0.220038,-0.35462 0.143132,-0.14527 0.343944,-0.22431 0.200811,-0.079 0.446485,-0.079 z m 0,1.85217 q 0.273446,0 0.40376,-0.18372 0.132451,-0.18372 0.132451,-0.53835 0,-0.35462 -0.132451,-0.54048 -0.130314,-0.18586 -0.40376,-0.18586 -0.277718,0 -0.412305,0.188 -0.13245,0.18585 -0.13245,0.53834 0,0.35249 0.13245,0.53835 0.134587,0.18372 0.412305,0.18372 z" />
      <path
         id="path850"
         style="font-style:normal;font-variant:normal;font-weight:bold;font-stretch:normal;font-family:Lato;-inkscape-font-specification:'Lato Bold';fill:#f9f9f9;stroke-width:0.1068148"
         d="m 46.906388,130.02117 q 0.243537,0 0.442213,0.079 0.200812,0.079 0.341807,0.22431 0.143132,0.14526 0.220039,0.35462 0.07691,0.20936 0.07691,0.46785 0,0.26063 -0.07691,0.46999 -0.07691,0.20935 -0.220039,0.35676 -0.140995,0.1474 -0.341807,0.22644 -0.198676,0.079 -0.442213,0.079 -0.245674,0 -0.446486,-0.079 -0.200812,-0.079 -0.343944,-0.22644 -0.140995,-0.14741 -0.220038,-0.35676 -0.07691,-0.20936 -0.07691,-0.46999 0,-0.25849 0.07691,-0.46785 0.07904,-0.20936 0.220038,-0.35462 0.143132,-0.14527 0.343944,-0.22431 0.200812,-0.079 0.446486,-0.079 z m 0,1.85217 q 0.273446,0 0.40376,-0.18372 0.13245,-0.18372 0.13245,-0.53835 0,-0.35462 -0.13245,-0.54048 -0.130314,-0.18586 -0.40376,-0.18586 -0.277719,0 -0.412305,0.188 -0.132451,0.18585 -0.132451,0.53834 0,0.35249 0.132451,0.53835 0.134586,0.18372 0.412305,0.18372 z" />
      <path
         id="path853"
         style="font-style:normal;font-variant:normal;font-weight:bold;font-stretch:normal;font-family:Lato;-inkscape-font-specification:'Lato Bold';fill:#f9f9f9;stroke-width:0.1068148"
         d="m 48.918775,131.67894 q 0.08972,0.10895 0.194403,0.15381 0.106815,0.0449 0.23072,0.0449 0.119632,0 0.215766,-0.0449 0.09613,-0.0449 0.162358,-0.13672 0.06836,-0.0919 0.104679,-0.23072 0.03632,-0.141 0.03632,-0.33113 0,-0.19226 -0.03204,-0.32471 -0.02991,-0.13459 -0.08759,-0.21791 -0.05768,-0.0833 -0.140995,-0.12177 -0.08118,-0.0384 -0.185858,-0.0384 -0.164495,0 -0.279855,0.0705 -0.11536,0.0684 -0.217902,0.1944 z m -0.02777,-1.32451 q 0.134587,-0.15167 0.30549,-0.24567 0.170904,-0.094 0.401624,-0.094 0.179449,0 0.326853,0.0748 0.149541,0.0748 0.256356,0.21791 0.108951,0.14099 0.166631,0.35035 0.05982,0.20722 0.05982,0.47639 0,0.24568 -0.06622,0.45503 -0.06623,0.20936 -0.19013,0.36317 -0.121769,0.15382 -0.296946,0.2414 -0.17304,0.0855 -0.388805,0.0855 -0.183722,0 -0.314036,-0.0555 -0.130314,-0.0577 -0.232856,-0.15808 v 0.89724 H 48.39111 v -2.9075 h 0.32258 q 0.102543,0 0.134587,0.0961 z" />
      <path
         id="path855"
         style="font-style:normal;font-variant:normal;font-weight:bold;font-stretch:normal;font-family:Lato;-inkscape-font-specification:'Lato Bold';fill:#f9f9f9;stroke-width:0.1068148"
         d="m 52.230028,130.89919 q 0,-0.10254 -0.02991,-0.19227 -0.02777,-0.0919 -0.08545,-0.16022 -0.05768,-0.0684 -0.147405,-0.10681 -0.08759,-0.0406 -0.205084,-0.0406 -0.228584,0 -0.361034,0.13031 -0.130314,0.13031 -0.166631,0.36958 z m -1.006196,0.31831 q 0.01282,0.16877 0.05982,0.29267 0.047,0.12177 0.123905,0.20295 0.07691,0.079 0.181585,0.11963 0.106815,0.0384 0.234993,0.0384 0.128177,0 0.220038,-0.0299 0.094,-0.0299 0.162359,-0.0662 0.0705,-0.0363 0.121768,-0.0662 0.05341,-0.0299 0.102543,-0.0299 0.06622,0 0.09827,0.0491 l 0.151677,0.19227 q -0.08759,0.10254 -0.196539,0.17304 -0.108951,0.0684 -0.228584,0.11109 -0.117496,0.0406 -0.241401,0.0577 -0.121769,0.0171 -0.237129,0.0171 -0.228584,0 -0.425123,-0.0748 -0.196539,-0.0769 -0.341807,-0.22431 -0.145268,-0.14955 -0.228584,-0.36745 -0.08331,-0.22004 -0.08331,-0.50844 0,-0.22431 0.07263,-0.42085 0.07263,-0.19867 0.20722,-0.34394 0.136723,-0.1474 0.331126,-0.23286 0.19654,-0.0854 0.442214,-0.0854 0.20722,0 0.382396,0.0662 0.175177,0.0662 0.301218,0.1944 0.126042,0.12604 0.196539,0.3119 0.07263,0.18372 0.07263,0.42085 0,0.11963 -0.02564,0.16236 -0.02564,0.0406 -0.09827,0.0406 z" />
      <path
         id="path857"
         style="font-style:normal;font-variant:normal;font-weight:bold;font-stretch:normal;font-family:Lato;-inkscape-font-specification:'Lato Bold';fill:#f9f9f9;stroke-width:0.1068148"
         d="m 53.597252,130.43561 q 0.102542,-0.19654 0.243538,-0.30762 0.140995,-0.11323 0.333262,-0.11323 0.151677,0 0.243538,0.0662 l -0.03418,0.39521 q -0.01068,0.0385 -0.03204,0.0555 -0.01923,0.0149 -0.05341,0.0149 -0.03204,0 -0.09613,-0.0107 -0.06195,-0.0107 -0.121769,-0.0107 -0.08759,0 -0.15595,0.0256 -0.06836,0.0256 -0.123905,0.0748 -0.05341,0.047 -0.09613,0.11536 -0.04059,0.0684 -0.07691,0.15595 v 1.35014 h -0.527665 v -2.19184 h 0.309763 q 0.08118,0 0.113224,0.0299 0.03204,0.0278 0.04273,0.10254 z" />
      <path
         id="path859"
         style="font-style:normal;font-variant:normal;font-weight:bold;font-stretch:normal;font-family:Lato;-inkscape-font-specification:'Lato Bold';fill:#f9f9f9;stroke-width:0.1068148"
         d="m 55.823266,131.31149 q -0.228583,0.0107 -0.384533,0.0406 -0.155949,0.0278 -0.249946,0.0726 -0.094,0.0449 -0.134587,0.10468 -0.04059,0.0598 -0.04059,0.13031 0,0.13886 0.08118,0.19868 0.08331,0.0598 0.215766,0.0598 0.162358,0 0.279854,-0.0577 0.119633,-0.0598 0.232856,-0.17945 z m -1.209143,-0.95065 q 0.378124,-0.34608 0.910062,-0.34608 0.192267,0 0.343944,0.0641 0.151677,0.062 0.256355,0.17518 0.104679,0.11109 0.158086,0.26704 0.05554,0.15594 0.05554,0.3418 v 1.38432 h -0.239265 q -0.07477,0 -0.11536,-0.0214 -0.04059,-0.0235 -0.06409,-0.0919 l -0.047,-0.15809 q -0.08332,0.0748 -0.162358,0.13245 -0.07904,0.0556 -0.164495,0.094 -0.08545,0.0385 -0.183721,0.0577 -0.09613,0.0214 -0.21363,0.0214 -0.138859,0 -0.256355,-0.0363 -0.117497,-0.0385 -0.202949,-0.11323 -0.08545,-0.0748 -0.13245,-0.18586 -0.047,-0.11108 -0.047,-0.25849 0,-0.0833 0.02777,-0.16449 0.02777,-0.0833 0.08973,-0.15809 0.06409,-0.0748 0.164495,-0.14099 0.100406,-0.0662 0.245674,-0.11536 0.147404,-0.0491 0.341807,-0.079 0.194403,-0.032 0.444349,-0.0385 v -0.12818 q 0,-0.22004 -0.094,-0.32471 -0.094,-0.10682 -0.271309,-0.10682 -0.128178,0 -0.21363,0.0299 -0.08331,0.0299 -0.147404,0.0684 -0.06409,0.0363 -0.117496,0.0662 -0.05127,0.0299 -0.11536,0.0299 -0.05554,0 -0.094,-0.0278 -0.03845,-0.0299 -0.06195,-0.0684 z" />
      <path
         id="path861"
         style="font-style:normal;font-variant:normal;font-weight:bold;font-stretch:normal;font-family:Lato;-inkscape-font-specification:'Lato Bold';fill:#f9f9f9;stroke-width:0.1068148"
         d="m 59.014884,132.24719 h -0.527665 v -1.79662 h -1.016877 v 1.18778 q 0,0.10254 0.04913,0.16022 0.05127,0.0577 0.138859,0.0577 0.04913,0 0.08118,-0.0107 0.03418,-0.0128 0.05768,-0.0256 0.02564,-0.0128 0.04486,-0.0235 0.01923,-0.0128 0.03845,-0.0128 0.0235,0 0.03845,0.0128 0.01496,0.0107 0.03204,0.0342 l 0.158086,0.25636 q -0.11536,0.0961 -0.264901,0.14527 -0.149541,0.0491 -0.309763,0.0491 -0.286263,0 -0.440077,-0.16022 -0.151677,-0.16236 -0.151677,-0.44648 v -1.2241 h -0.224311 q -0.04273,0 -0.07263,-0.0278 -0.02991,-0.0278 -0.02991,-0.0833 v -0.20936 l 0.352489,-0.0598 0.111087,-0.59603 q 0.01068,-0.0427 0.04059,-0.0662 0.02991,-0.0235 0.07691,-0.0235 h 0.273445 v 0.69002 h 1.544542 z m 0.09186,-2.83913 q 0,0.0684 -0.02777,0.13031 -0.02777,0.0598 -0.07477,0.10468 -0.04486,0.0449 -0.108951,0.0726 -0.06195,0.0256 -0.132451,0.0256 -0.06836,0 -0.128177,-0.0256 -0.05982,-0.0278 -0.104679,-0.0726 -0.04486,-0.0449 -0.07263,-0.10468 -0.02564,-0.0619 -0.02564,-0.13031 0,-0.0705 0.02564,-0.13032 0.02777,-0.0619 0.07263,-0.10681 0.04486,-0.047 0.104679,-0.0726 0.05982,-0.0278 0.128177,-0.0278 0.0705,0 0.132451,0.0278 0.06409,0.0256 0.108951,0.0726 0.047,0.0449 0.07477,0.10681 0.02777,0.0598 0.02777,0.13032 z" />
      <path
         id="path863"
         style="font-style:normal;font-variant:normal;font-weight:bold;font-stretch:normal;font-family:Lato;-inkscape-font-specification:'Lato Bold';fill:#f9f9f9;stroke-width:0.1068148"
         d="m 61.5293,130.05535 -0.869472,2.19184 h -0.47853 l -0.869473,-2.19184 h 0.435805 q 0.05982,0 0.09827,0.0278 0.04059,0.0278 0.05341,0.0705 l 0.422986,1.17069 q 0.03418,0.10254 0.05982,0.20081 0.02564,0.0983 0.04486,0.19654 0.02136,-0.0983 0.047,-0.19654 0.02564,-0.0983 0.06195,-0.20081 l 0.431532,-1.17069 q 0.01495,-0.0427 0.05341,-0.0705 0.03845,-0.0278 0.09186,-0.0278 z" />
      <path
         id="path865"
         style="font-style:normal;font-variant:normal;font-weight:bold;font-stretch:normal;font-family:Lato;-inkscape-font-specification:'Lato Bold';fill:#f9f9f9;stroke-width:0.1068148"
         d="m 63.152883,130.89919 q 0,-0.10254 -0.02991,-0.19227 -0.02777,-0.0919 -0.08545,-0.16022 -0.05768,-0.0684 -0.147404,-0.10681 -0.08759,-0.0406 -0.205085,-0.0406 -0.228583,0 -0.361034,0.13031 -0.130314,0.13031 -0.166631,0.36958 z m -1.006195,0.31831 q 0.01282,0.16877 0.05982,0.29267 0.047,0.12177 0.123905,0.20295 0.07691,0.079 0.181585,0.11963 0.106815,0.0384 0.234993,0.0384 0.128178,0 0.220038,-0.0299 0.094,-0.0299 0.162359,-0.0662 0.0705,-0.0363 0.121769,-0.0662 0.05341,-0.0299 0.102542,-0.0299 0.06622,0 0.09827,0.0491 l 0.151677,0.19227 q -0.08759,0.10254 -0.19654,0.17304 -0.108951,0.0684 -0.228583,0.11109 -0.117497,0.0406 -0.241402,0.0577 -0.121769,0.0171 -0.237129,0.0171 -0.228583,0 -0.425122,-0.0748 -0.19654,-0.0769 -0.341808,-0.22431 -0.145268,-0.14955 -0.228583,-0.36745 -0.08332,-0.22004 -0.08332,-0.50844 0,-0.22431 0.07263,-0.42085 0.07263,-0.19867 0.207221,-0.34394 0.136723,-0.1474 0.331126,-0.23286 0.196539,-0.0854 0.442213,-0.0854 0.207221,0 0.382397,0.0662 0.175176,0.0662 0.301218,0.1944 0.126041,0.12604 0.196539,0.3119 0.07263,0.18372 0.07263,0.42085 0,0.11963 -0.02564,0.16236 -0.02564,0.0406 -0.09827,0.0406 z" />
      <path
         id="path867"
         style="font-style:normal;font-variant:normal;font-weight:bold;font-stretch:normal;font-family:Lato;-inkscape-font-specification:'Lato Bold';fill:#f9f9f9;stroke-width:0.1068148"
         d="m 66.436356,130.61506 q -0.08972,-0.10895 -0.196539,-0.15381 -0.104679,-0.0449 -0.226448,-0.0449 -0.119632,0 -0.215765,0.0449 -0.09613,0.0449 -0.164495,0.13672 -0.06836,0.0897 -0.104679,0.23072 -0.03632,0.13886 -0.03632,0.32899 0,0.19227 0.02991,0.32685 0.03205,0.13246 0.08973,0.21791 0.05768,0.0833 0.140995,0.12177 0.08332,0.0363 0.185858,0.0363 0.164495,0 0.279855,-0.0684 0.11536,-0.0684 0.217902,-0.1944 z m 0.527665,-1.5424 v 3.17453 H 66.64144 q -0.104678,0 -0.13245,-0.0961 l -0.04486,-0.21149 q -0.13245,0.15167 -0.30549,0.24567 -0.170904,0.094 -0.399488,0.094 -0.179449,0 -0.328989,-0.0748 -0.149541,-0.0748 -0.258492,-0.21577 -0.106815,-0.14313 -0.166631,-0.35249 -0.05768,-0.20936 -0.05768,-0.47853 0,-0.24354 0.06623,-0.45289 0.06623,-0.20936 0.19013,-0.36317 0.123906,-0.15382 0.296945,-0.23927 0.17304,-0.0876 0.388806,-0.0876 0.183722,0 0.314036,0.0577 0.130314,0.0577 0.232856,0.15595 v -1.15573 z" />
      <path
         id="path869"
         style="font-style:normal;font-variant:normal;font-weight:bold;font-stretch:normal;font-family:Lato;-inkscape-font-specification:'Lato Bold';fill:#f9f9f9;stroke-width:0.1068148"
         d="m 68.897363,130.89919 q 0,-0.10254 -0.02991,-0.19227 -0.02777,-0.0919 -0.08545,-0.16022 -0.05768,-0.0684 -0.147404,-0.10681 -0.08759,-0.0406 -0.205084,-0.0406 -0.228584,0 -0.361034,0.13031 -0.130314,0.13031 -0.166632,0.36958 z m -1.006195,0.31831 q 0.01282,0.16877 0.05982,0.29267 0.047,0.12177 0.123905,0.20295 0.07691,0.079 0.181586,0.11963 0.106814,0.0384 0.234992,0.0384 0.128178,0 0.220039,-0.0299 0.094,-0.0299 0.162358,-0.0662 0.0705,-0.0363 0.121769,-0.0662 0.05341,-0.0299 0.102542,-0.0299 0.06623,0 0.09827,0.0491 l 0.151677,0.19227 q -0.08759,0.10254 -0.196539,0.17304 -0.108952,0.0684 -0.228584,0.11109 -0.117496,0.0406 -0.241402,0.0577 -0.121768,0.0171 -0.237128,0.0171 -0.228584,0 -0.425123,-0.0748 -0.196539,-0.0769 -0.341808,-0.22431 -0.145268,-0.14955 -0.228583,-0.36745 -0.08332,-0.22004 -0.08332,-0.50844 0,-0.22431 0.07263,-0.42085 0.07263,-0.19867 0.207221,-0.34394 0.136723,-0.1474 0.331126,-0.23286 0.196539,-0.0854 0.442213,-0.0854 0.207221,0 0.382397,0.0662 0.175176,0.0662 0.301218,0.1944 0.126041,0.12604 0.196539,0.3119 0.07263,0.18372 0.07263,0.42085 0,0.11963 -0.02564,0.16236 -0.02563,0.0406 -0.09827,0.0406 z" />
      <path
         id="path871"
         style="font-style:normal;font-variant:normal;font-weight:bold;font-stretch:normal;font-family:Lato;-inkscape-font-specification:'Lato Bold';fill:#f9f9f9;stroke-width:0.1068148"
         d="m 70.264588,130.43561 q 0.102542,-0.19654 0.243537,-0.30762 0.140996,-0.11323 0.333263,-0.11323 0.151677,0 0.243537,0.0662 l -0.03418,0.39521 q -0.01068,0.0385 -0.03205,0.0555 -0.01923,0.0149 -0.05341,0.0149 -0.03204,0 -0.09613,-0.0107 -0.06195,-0.0107 -0.121768,-0.0107 -0.08759,0 -0.15595,0.0256 -0.06836,0.0256 -0.123905,0.0748 -0.05341,0.047 -0.09613,0.11536 -0.04059,0.0684 -0.07691,0.15595 v 1.35014 h -0.527665 v -2.19184 h 0.309763 q 0.08118,0 0.113223,0.0299 0.03204,0.0278 0.04273,0.10254 z" />
    </g>
    <g
       transform="matrix(2.7697791,0,0,2.7697791,-19.726556,-338.57791)"
       id="text831"
       style="font-style:normal;font-variant:normal;font-weight:normal;font-stretch:normal;font-size:4.27259159px;line-height:1.25;font-family:'Tw Cen MT';-inkscape-font-specification:'Tw Cen MT, Normal';font-variant-ligatures:normal;font-variant-caps:normal;font-variant-numeric:normal;text-align:start;letter-spacing:0px;word-spacing:0px;writing-mode:lr-tb;text-anchor:start;fill:#000000;fill-opacity:1;stroke:none;stroke-width:0.1068148"
       aria-label="Technikfreundinnen e.G.">
      <path
         id="path874"
         style="font-style:normal;font-variant:normal;font-weight:bold;font-stretch:normal;font-family:Lato;-inkscape-font-specification:'Lato Bold';fill:#000000;stroke-width:0.1068148"
         d="m 36.757469,134.59129 h -0.931425 v 2.61696 h -0.574663 v -2.61696 h -0.931425 v -0.47212 h 2.437513 z" />
      <path
         id="path876"
         style="font-style:normal;font-variant:normal;font-weight:bold;font-stretch:normal;font-family:Lato;-inkscape-font-specification:'Lato Bold';fill:#000000;stroke-width:0.1068148"
         d="m 37.977285,135.86025 q 0,-0.10254 -0.02991,-0.19227 -0.02777,-0.0919 -0.08545,-0.16022 -0.05768,-0.0684 -0.147404,-0.10681 -0.08759,-0.0406 -0.205085,-0.0406 -0.228583,0 -0.361033,0.13031 -0.130315,0.13031 -0.166632,0.36958 z m -1.006195,0.31831 q 0.01282,0.16876 0.05982,0.29267 0.047,0.12177 0.123905,0.20295 0.07691,0.079 0.181586,0.11963 0.106814,0.0384 0.234992,0.0384 0.128178,0 0.220039,-0.0299 0.094,-0.0299 0.162358,-0.0662 0.0705,-0.0363 0.121769,-0.0662 0.05341,-0.0299 0.102542,-0.0299 0.06622,0 0.09827,0.0491 l 0.151677,0.19227 q -0.08759,0.10254 -0.19654,0.17304 -0.108951,0.0684 -0.228583,0.11109 -0.117496,0.0406 -0.241402,0.0577 -0.121768,0.0171 -0.237128,0.0171 -0.228584,0 -0.425123,-0.0748 -0.19654,-0.0769 -0.341808,-0.22432 -0.145268,-0.14954 -0.228583,-0.36744 -0.08332,-0.22004 -0.08332,-0.50844 0,-0.22431 0.07263,-0.42085 0.07263,-0.19867 0.207221,-0.34394 0.136723,-0.1474 0.331126,-0.23286 0.196539,-0.0855 0.442213,-0.0855 0.207221,0 0.382397,0.0662 0.175176,0.0662 0.301218,0.1944 0.126041,0.12604 0.196539,0.3119 0.07263,0.18372 0.07263,0.42085 0,0.11963 -0.02564,0.16236 -0.02564,0.0406 -0.09827,0.0406 z" />
      <path
         id="path878"
         style="font-style:normal;font-variant:normal;font-weight:bold;font-stretch:normal;font-family:Lato;-inkscape-font-specification:'Lato Bold';fill:#000000;stroke-width:0.1068148"
         d="m 40.416929,135.47999 q -0.0235,0.0299 -0.047,0.047 -0.02136,0.0171 -0.06409,0.0171 -0.04059,0 -0.07904,-0.0235 -0.03845,-0.0256 -0.09186,-0.0555 -0.05341,-0.032 -0.128178,-0.0555 -0.07263,-0.0256 -0.181585,-0.0256 -0.138859,0 -0.243538,0.0513 -0.104678,0.0491 -0.175176,0.14313 -0.06836,0.094 -0.102542,0.22858 -0.03418,0.13245 -0.03418,0.30122 0,0.17518 0.03632,0.3119 0.03845,0.13672 0.108951,0.23072 0.0705,0.0919 0.170904,0.14099 0.100406,0.047 0.226447,0.047 0.126042,0 0.202948,-0.0299 0.07904,-0.032 0.132451,-0.0684 0.05341,-0.0384 0.09186,-0.0684 0.04059,-0.032 0.08973,-0.032 0.06409,0 0.09613,0.0491 l 0.151677,0.19227 q -0.08759,0.10254 -0.19013,0.17304 -0.102542,0.0684 -0.21363,0.11109 -0.108951,0.0406 -0.226447,0.0577 -0.11536,0.0171 -0.23072,0.0171 -0.202948,0 -0.382397,-0.0748 -0.179449,-0.0769 -0.314035,-0.22218 -0.134587,-0.14527 -0.21363,-0.35462 -0.07691,-0.2115 -0.07691,-0.48067 0,-0.2414 0.06836,-0.44649 0.0705,-0.20722 0.205084,-0.35676 0.134587,-0.15167 0.333262,-0.23713 0.198676,-0.0855 0.457168,-0.0855 0.245674,0 0.429395,0.079 0.185858,0.079 0.333262,0.22645 z" />
      <path
         id="path880"
         style="font-style:normal;font-variant:normal;font-weight:bold;font-stretch:normal;font-family:Lato;-inkscape-font-specification:'Lato Bold';fill:#000000;stroke-width:0.1068148"
         d="m 41.433799,135.25141 q 0.128178,-0.11964 0.281991,-0.19441 0.153813,-0.0748 0.361034,-0.0748 0.179449,0 0.318308,0.062 0.138859,0.0598 0.23072,0.17091 0.094,0.10895 0.140996,0.26276 0.04913,0.15168 0.04913,0.3354 v 1.395 h -0.527665 v -1.395 q 0,-0.20081 -0.09186,-0.30976 -0.09186,-0.11109 -0.279855,-0.11109 -0.136723,0 -0.256356,0.0619 -0.119632,0.062 -0.226447,0.16877 v 1.58513 H 40.90613 v -3.17453 h 0.527665 z" />
      <path
         id="path882"
         style="font-style:normal;font-variant:normal;font-weight:bold;font-stretch:normal;font-family:Lato;-inkscape-font-specification:'Lato Bold';fill:#000000;stroke-width:0.1068148"
         d="m 43.809356,135.28559 q 0.06622,-0.0662 0.138859,-0.12177 0.07477,-0.0577 0.15595,-0.0961 0.08331,-0.0406 0.177312,-0.0619 0.094,-0.0235 0.205085,-0.0235 0.179449,0 0.318308,0.062 0.138859,0.0598 0.23072,0.17091 0.094,0.10895 0.140995,0.26276 0.04913,0.15168 0.04913,0.3354 v 1.395 H 44.69805 v -1.395 q 0,-0.20081 -0.09186,-0.30976 -0.09186,-0.11109 -0.279855,-0.11109 -0.136722,0 -0.256355,0.0619 -0.119633,0.062 -0.226447,0.16877 v 1.58513 h -0.527665 v -2.19184 h 0.32258 q 0.102542,0 0.134587,0.0961 z" />
      <path
         id="path884"
         style="font-style:normal;font-variant:normal;font-weight:bold;font-stretch:normal;font-family:Lato;-inkscape-font-specification:'Lato Bold';fill:#000000;stroke-width:0.1068148"
         d="m 46.272502,135.01641 v 2.19184 H 45.7427 v -2.19184 z m 0.07263,-0.63875 q 0,0.0684 -0.02777,0.12818 -0.02777,0.0598 -0.07477,0.10468 -0.04486,0.0449 -0.106815,0.0726 -0.06195,0.0256 -0.13245,0.0256 -0.06836,0 -0.130314,-0.0256 -0.05982,-0.0278 -0.104679,-0.0726 -0.04486,-0.0449 -0.07263,-0.10468 -0.02564,-0.0598 -0.02564,-0.12818 0,-0.0705 0.02564,-0.13245 0.02777,-0.0619 0.07263,-0.10682 0.04486,-0.0449 0.104679,-0.0705 0.06195,-0.0278 0.130314,-0.0278 0.0705,0 0.13245,0.0278 0.06195,0.0256 0.106815,0.0705 0.047,0.0449 0.07477,0.10682 0.02777,0.062 0.02777,0.13245 z" />
      <path
         id="path886"
         style="font-style:normal;font-variant:normal;font-weight:bold;font-stretch:normal;font-family:Lato;-inkscape-font-specification:'Lato Bold';fill:#000000;stroke-width:0.1068148"
         d="m 47.338512,134.03372 v 1.81798 h 0.09827 q 0.05341,0 0.08332,-0.0128 0.03204,-0.015 0.06409,-0.0577 l 0.544755,-0.67294 q 0.03418,-0.0449 0.07477,-0.0684 0.04272,-0.0235 0.108951,-0.0235 h 0.482802 l -0.681478,0.81393 q -0.07263,0.0961 -0.158086,0.14741 0.04486,0.032 0.07904,0.0748 0.03632,0.0427 0.06836,0.0919 l 0.730613,1.06387 h -0.476394 q -0.06195,0 -0.106815,-0.0192 -0.04486,-0.0214 -0.07477,-0.0748 l -0.55971,-0.83101 q -0.02991,-0.0491 -0.06195,-0.0641 -0.03204,-0.015 -0.09613,-0.015 h -0.119632 v 1.00406 h -0.527665 v -3.17453 z" />
      <path
         id="path888"
         style="font-style:normal;font-variant:normal;font-weight:bold;font-stretch:normal;font-family:Lato;-inkscape-font-specification:'Lato Bold';fill:#000000;stroke-width:0.1068148"
         d="m 49.248353,137.20825 v -1.79449 l -0.19013,-0.0299 q -0.06195,-0.0128 -0.100406,-0.0427 -0.03632,-0.032 -0.03632,-0.0897 v -0.21577 h 0.326853 v -0.16236 q 0,-0.18799 0.05554,-0.33753 0.05768,-0.14954 0.162358,-0.25422 0.106815,-0.10468 0.258492,-0.16023 0.151677,-0.0555 0.341808,-0.0555 0.151677,0 0.281991,0.0406 l -0.01068,0.2649 q -0.0021,0.0299 -0.01709,0.0491 -0.01495,0.0171 -0.04059,0.0278 -0.0235,0.009 -0.05554,0.0128 -0.03204,0.002 -0.06836,0.002 -0.094,0 -0.168767,0.0214 -0.07263,0.0192 -0.123906,0.0705 -0.05127,0.0491 -0.07904,0.13245 -0.02564,0.0812 -0.02564,0.20295 v 0.14527 h 0.570391 v 0.37599 h -0.553301 v 1.79662 z" />
      <path
         id="path890"
         style="font-style:normal;font-variant:normal;font-weight:bold;font-stretch:normal;font-family:Lato;-inkscape-font-specification:'Lato Bold';fill:#000000;stroke-width:0.1068148"
         d="m 51.124018,135.39667 q 0.102542,-0.19654 0.243538,-0.30762 0.140995,-0.11323 0.333262,-0.11323 0.151677,0 0.243538,0.0662 l -0.03418,0.39521 q -0.01068,0.0385 -0.03205,0.0555 -0.01923,0.0149 -0.05341,0.0149 -0.03204,0 -0.09613,-0.0107 -0.06195,-0.0107 -0.121769,-0.0107 -0.08759,0 -0.15595,0.0256 -0.06836,0.0256 -0.123905,0.0748 -0.05341,0.047 -0.09613,0.11536 -0.04059,0.0684 -0.07691,0.15595 v 1.35014 h -0.527665 v -2.19184 h 0.309763 q 0.08118,0 0.113224,0.0299 0.03204,0.0278 0.04273,0.10254 z" />
      <path
         id="path892"
         style="font-style:normal;font-variant:normal;font-weight:bold;font-stretch:normal;font-family:Lato;-inkscape-font-specification:'Lato Bold';fill:#000000;stroke-width:0.1068148"
         d="m 53.570066,135.86025 q 0,-0.10254 -0.02991,-0.19227 -0.02777,-0.0919 -0.08545,-0.16022 -0.05768,-0.0684 -0.147404,-0.10681 -0.08759,-0.0406 -0.205085,-0.0406 -0.228583,0 -0.361034,0.13031 -0.130314,0.13031 -0.166631,0.36958 z m -1.006195,0.31831 q 0.01282,0.16876 0.05982,0.29267 0.047,0.12177 0.123905,0.20295 0.07691,0.079 0.181585,0.11963 0.106815,0.0384 0.234993,0.0384 0.128178,0 0.220038,-0.0299 0.094,-0.0299 0.162359,-0.0662 0.0705,-0.0363 0.121769,-0.0662 0.05341,-0.0299 0.102542,-0.0299 0.06622,0 0.09827,0.0491 l 0.151677,0.19227 q -0.08759,0.10254 -0.19654,0.17304 -0.108951,0.0684 -0.228583,0.11109 -0.117497,0.0406 -0.241402,0.0577 -0.121769,0.0171 -0.237129,0.0171 -0.228583,0 -0.425122,-0.0748 -0.19654,-0.0769 -0.341808,-0.22432 -0.145268,-0.14954 -0.228583,-0.36744 -0.08332,-0.22004 -0.08332,-0.50844 0,-0.22431 0.07263,-0.42085 0.07263,-0.19867 0.207221,-0.34394 0.136723,-0.1474 0.331126,-0.23286 0.196539,-0.0855 0.442213,-0.0855 0.207221,0 0.382397,0.0662 0.175176,0.0662 0.301218,0.1944 0.126041,0.12604 0.196539,0.3119 0.07263,0.18372 0.07263,0.42085 0,0.11963 -0.02564,0.16236 -0.02563,0.0406 -0.09827,0.0406 z" />
      <path
         id="path894"
         style="font-style:normal;font-variant:normal;font-weight:bold;font-stretch:normal;font-family:Lato;-inkscape-font-specification:'Lato Bold';fill:#000000;stroke-width:0.1068148"
         d="m 56.328019,135.01641 v 2.19184 h -0.322581 q -0.104678,0 -0.13245,-0.0961 l -0.03632,-0.17518 q -0.134587,0.13673 -0.296945,0.22218 -0.162359,0.0833 -0.382397,0.0833 -0.179449,0 -0.318308,-0.0598 -0.136723,-0.062 -0.23072,-0.17304 -0.094,-0.11109 -0.143132,-0.26277 -0.047,-0.15381 -0.047,-0.33753 v -1.39287 h 0.527665 v 1.39287 q 0,0.20081 0.09186,0.3119 0.094,0.10895 0.279855,0.10895 0.136723,0 0.256356,-0.0598 0.119632,-0.0619 0.226447,-0.16877 v -1.58513 z" />
      <path
         id="path896"
         style="font-style:normal;font-variant:normal;font-weight:bold;font-stretch:normal;font-family:Lato;-inkscape-font-specification:'Lato Bold';fill:#000000;stroke-width:0.1068148"
         d="m 57.342755,135.28559 q 0.06623,-0.0662 0.138859,-0.12177 0.07477,-0.0577 0.155949,-0.0961 0.08332,-0.0406 0.177313,-0.0619 0.094,-0.0235 0.205084,-0.0235 0.179449,0 0.318308,0.062 0.13886,0.0598 0.23072,0.17091 0.094,0.10895 0.140996,0.26276 0.04913,0.15168 0.04913,0.3354 v 1.395 h -0.527665 v -1.395 q 0,-0.20081 -0.09186,-0.30976 -0.09186,-0.11109 -0.279855,-0.11109 -0.136723,0 -0.256355,0.0619 -0.119633,0.062 -0.226448,0.16877 v 1.58513 H 56.84927 v -2.19184 h 0.322581 q 0.102542,0 0.134587,0.0961 z" />
      <path
         id="path898"
         style="font-style:normal;font-variant:normal;font-weight:bold;font-stretch:normal;font-family:Lato;-inkscape-font-specification:'Lato Bold';fill:#000000;stroke-width:0.1068148"
         d="m 60.634783,135.57612 q -0.08972,-0.10895 -0.196539,-0.15381 -0.104678,-0.0449 -0.226447,-0.0449 -0.119633,0 -0.215766,0.0449 -0.09613,0.0449 -0.164495,0.13672 -0.06836,0.0897 -0.104678,0.23072 -0.03632,0.13886 -0.03632,0.32899 0,0.19227 0.02991,0.32685 0.03204,0.13245 0.08972,0.21791 0.05768,0.0833 0.140996,0.12177 0.08331,0.0363 0.185857,0.0363 0.164495,0 0.279855,-0.0684 0.11536,-0.0684 0.217902,-0.1944 z m 0.527665,-1.5424 v 3.17453 h -0.32258 q -0.104679,0 -0.132451,-0.0961 l -0.04486,-0.21149 q -0.13245,0.15167 -0.30549,0.24567 -0.170904,0.094 -0.399488,0.094 -0.179448,0 -0.328989,-0.0748 -0.149541,-0.0748 -0.258492,-0.21577 -0.106815,-0.14313 -0.166631,-0.35249 -0.05768,-0.20936 -0.05768,-0.47853 0,-0.24354 0.06623,-0.45289 0.06623,-0.20936 0.190131,-0.36317 0.123905,-0.15382 0.296945,-0.23927 0.17304,-0.0876 0.388806,-0.0876 0.183721,0 0.314035,0.0577 0.130314,0.0577 0.232856,0.15595 v -1.15573 z" />
      <path
         id="path900"
         style="font-style:normal;font-variant:normal;font-weight:bold;font-stretch:normal;font-family:Lato;-inkscape-font-specification:'Lato Bold';fill:#000000;stroke-width:0.1068148"
         d="m 62.230593,135.01641 v 2.19184 h -0.529802 v -2.19184 z m 0.07263,-0.63875 q 0,0.0684 -0.02777,0.12818 -0.02777,0.0598 -0.07477,0.10468 -0.04486,0.0449 -0.106814,0.0726 -0.06195,0.0256 -0.132451,0.0256 -0.06836,0 -0.130314,-0.0256 -0.05982,-0.0278 -0.104678,-0.0726 -0.04486,-0.0449 -0.07263,-0.10468 -0.02564,-0.0598 -0.02564,-0.12818 0,-0.0705 0.02564,-0.13245 0.02777,-0.0619 0.07263,-0.10682 0.04486,-0.0449 0.104678,-0.0705 0.06195,-0.0278 0.130314,-0.0278 0.0705,0 0.132451,0.0278 0.06195,0.0256 0.106814,0.0705 0.047,0.0449 0.07477,0.10682 0.02777,0.062 0.02777,0.13245 z" />
      <path
         id="path902"
         style="font-style:normal;font-variant:normal;font-weight:bold;font-stretch:normal;font-family:Lato;-inkscape-font-specification:'Lato Bold';fill:#000000;stroke-width:0.1068148"
         d="m 63.262423,135.28559 q 0.06623,-0.0662 0.138859,-0.12177 0.07477,-0.0577 0.15595,-0.0961 0.08331,-0.0406 0.177312,-0.0619 0.094,-0.0235 0.205085,-0.0235 0.179448,0 0.318308,0.062 0.138859,0.0598 0.23072,0.17091 0.094,0.10895 0.140995,0.26276 0.04914,0.15168 0.04914,0.3354 v 1.395 h -0.527665 v -1.395 q 0,-0.20081 -0.09186,-0.30976 -0.09186,-0.11109 -0.279855,-0.11109 -0.136723,0 -0.256355,0.0619 -0.119633,0.062 -0.226448,0.16877 v 1.58513 h -0.527665 v -2.19184 h 0.322581 q 0.102542,0 0.134587,0.0961 z" />
      <path
         id="path904"
         style="font-style:normal;font-variant:normal;font-weight:bold;font-stretch:normal;font-family:Lato;-inkscape-font-specification:'Lato Bold';fill:#000000;stroke-width:0.1068148"
         d="m 65.672161,135.28559 q 0.06623,-0.0662 0.13886,-0.12177 0.07477,-0.0577 0.155949,-0.0961 0.08332,-0.0406 0.177313,-0.0619 0.094,-0.0235 0.205084,-0.0235 0.179449,0 0.318308,0.062 0.138859,0.0598 0.23072,0.17091 0.094,0.10895 0.140996,0.26276 0.04913,0.15168 0.04913,0.3354 v 1.395 H 66.56086 v -1.395 q 0,-0.20081 -0.09186,-0.30976 -0.09186,-0.11109 -0.279855,-0.11109 -0.136723,0 -0.256356,0.0619 -0.119632,0.062 -0.226447,0.16877 v 1.58513 h -0.527665 v -2.19184 h 0.322581 q 0.102542,0 0.134586,0.0961 z" />
      <path
         id="path906"
         style="font-style:normal;font-variant:normal;font-weight:bold;font-stretch:normal;font-family:Lato;-inkscape-font-specification:'Lato Bold';fill:#000000;stroke-width:0.1068148"
         d="m 69.000505,135.86025 q 0,-0.10254 -0.02991,-0.19227 -0.02777,-0.0919 -0.08545,-0.16022 -0.05768,-0.0684 -0.147404,-0.10681 -0.08759,-0.0406 -0.205085,-0.0406 -0.228583,0 -0.361034,0.13031 -0.130314,0.13031 -0.166631,0.36958 z m -1.006195,0.31831 q 0.01282,0.16876 0.05982,0.29267 0.047,0.12177 0.123905,0.20295 0.07691,0.079 0.181585,0.11963 0.106815,0.0384 0.234993,0.0384 0.128178,0 0.220038,-0.0299 0.094,-0.0299 0.162359,-0.0662 0.0705,-0.0363 0.121769,-0.0662 0.05341,-0.0299 0.102542,-0.0299 0.06623,0 0.09827,0.0491 l 0.151677,0.19227 q -0.08759,0.10254 -0.19654,0.17304 -0.108951,0.0684 -0.228583,0.11109 -0.117497,0.0406 -0.241402,0.0577 -0.121769,0.0171 -0.237129,0.0171 -0.228583,0 -0.425122,-0.0748 -0.19654,-0.0769 -0.341808,-0.22432 -0.145268,-0.14954 -0.228583,-0.36744 -0.08332,-0.22004 -0.08332,-0.50844 0,-0.22431 0.07263,-0.42085 0.07263,-0.19867 0.207221,-0.34394 0.136723,-0.1474 0.331126,-0.23286 0.196539,-0.0855 0.442213,-0.0855 0.207221,0 0.382397,0.0662 0.175176,0.0662 0.301217,0.1944 0.126042,0.12604 0.19654,0.3119 0.07263,0.18372 0.07263,0.42085 0,0.11963 -0.02564,0.16236 -0.02564,0.0406 -0.09827,0.0406 z" />
      <path
         id="path908"
         style="font-style:normal;font-variant:normal;font-weight:bold;font-stretch:normal;font-family:Lato;-inkscape-font-specification:'Lato Bold';fill:#000000;stroke-width:0.1068148"
         d="m 70.363457,135.28559 q 0.06623,-0.0662 0.138859,-0.12177 0.07477,-0.0577 0.15595,-0.0961 0.08331,-0.0406 0.177312,-0.0619 0.094,-0.0235 0.205085,-0.0235 0.179449,0 0.318308,0.062 0.138859,0.0598 0.23072,0.17091 0.094,0.10895 0.140995,0.26276 0.04913,0.15168 0.04913,0.3354 v 1.395 h -0.527665 v -1.395 q 0,-0.20081 -0.09186,-0.30976 -0.09186,-0.11109 -0.279855,-0.11109 -0.136722,0 -0.256355,0.0619 -0.119633,0.062 -0.226447,0.16877 v 1.58513 h -0.527665 v -2.19184 h 0.32258 q 0.102542,0 0.134587,0.0961 z" />
      <path
         id="path910"
         style="font-style:normal;font-variant:normal;font-weight:bold;font-stretch:normal;font-family:Lato;-inkscape-font-specification:'Lato Bold';fill:#000000;stroke-width:0.1068148"
         d="m 74.730032,135.86025 q 0,-0.10254 -0.02991,-0.19227 -0.02777,-0.0919 -0.08545,-0.16022 -0.05768,-0.0684 -0.147405,-0.10681 -0.08759,-0.0406 -0.205084,-0.0406 -0.228584,0 -0.361034,0.13031 -0.130314,0.13031 -0.166631,0.36958 z m -1.006196,0.31831 q 0.01282,0.16876 0.05982,0.29267 0.047,0.12177 0.123905,0.20295 0.07691,0.079 0.181585,0.11963 0.106815,0.0384 0.234992,0.0384 0.128178,0 0.220039,-0.0299 0.094,-0.0299 0.162358,-0.0662 0.0705,-0.0363 0.121769,-0.0662 0.05341,-0.0299 0.102542,-0.0299 0.06623,0 0.09827,0.0491 l 0.151677,0.19227 q -0.08759,0.10254 -0.196539,0.17304 -0.108951,0.0684 -0.228584,0.11109 -0.117496,0.0406 -0.241401,0.0577 -0.121769,0.0171 -0.237129,0.0171 -0.228584,0 -0.425123,-0.0748 -0.196539,-0.0769 -0.341807,-0.22432 -0.145268,-0.14954 -0.228584,-0.36744 -0.08331,-0.22004 -0.08331,-0.50844 0,-0.22431 0.07263,-0.42085 0.07263,-0.19867 0.20722,-0.34394 0.136723,-0.1474 0.331126,-0.23286 0.196539,-0.0855 0.442213,-0.0855 0.207221,0 0.382397,0.0662 0.175177,0.0662 0.301218,0.1944 0.126041,0.12604 0.196539,0.3119 0.07263,0.18372 0.07263,0.42085 0,0.11963 -0.02564,0.16236 -0.02564,0.0406 -0.09827,0.0406 z" />
      <path
         id="path912"
         style="font-style:normal;font-variant:normal;font-weight:bold;font-stretch:normal;font-family:Lato;-inkscape-font-specification:'Lato Bold';fill:#000000;stroke-width:0.1068148"
         d="m 75.522592,136.91772 q 0,-0.0662 0.0235,-0.12605 0.02563,-0.0598 0.06836,-0.10254 0.04273,-0.0427 0.102542,-0.0684 0.05982,-0.0256 0.128178,-0.0256 0.06836,0 0.126042,0.0256 0.05982,0.0256 0.102542,0.0684 0.04486,0.0427 0.0705,0.10254 0.02563,0.0598 0.02563,0.12605 0,0.0684 -0.02563,0.12817 -0.02564,0.0577 -0.0705,0.10041 -0.04273,0.0427 -0.102542,0.0662 -0.05768,0.0256 -0.126042,0.0256 -0.06836,0 -0.128178,-0.0256 -0.05982,-0.0235 -0.102542,-0.0662 -0.04273,-0.0427 -0.06836,-0.10041 -0.0235,-0.0598 -0.0235,-0.12817 z" />
      <path
         id="path914"
         style="font-style:normal;font-variant:normal;font-weight:bold;font-stretch:normal;font-family:Lato;-inkscape-font-specification:'Lato Bold';fill:#000000;stroke-width:0.1068148"
         d="m 79.160699,135.65944 v 1.24973 q -0.234993,0.17304 -0.50203,0.25422 -0.264901,0.079 -0.568255,0.079 -0.378124,0 -0.685751,-0.11749 -0.30549,-0.1175 -0.523392,-0.32686 -0.215766,-0.20935 -0.333262,-0.49989 -0.117496,-0.29054 -0.117496,-0.63448 0,-0.34822 0.113223,-0.63875 0.113224,-0.29054 0.320445,-0.4999 0.209357,-0.20935 0.506302,-0.32471 0.296945,-0.11536 0.666524,-0.11536 0.187994,0 0.350353,0.0299 0.164494,0.0299 0.303354,0.0833 0.140995,0.0513 0.256355,0.12604 0.11536,0.0748 0.211493,0.1645 l -0.164494,0.26063 q -0.03845,0.0619 -0.100406,0.0769 -0.06195,0.0128 -0.134587,-0.032 -0.0705,-0.0406 -0.140996,-0.0812 -0.0705,-0.0406 -0.158085,-0.0705 -0.08545,-0.0299 -0.194403,-0.0491 -0.106815,-0.0192 -0.247811,-0.0192 -0.228583,0 -0.414441,0.0769 -0.183721,0.0769 -0.314036,0.22003 -0.130314,0.14314 -0.200811,0.34395 -0.0705,0.20081 -0.0705,0.44862 0,0.2649 0.07477,0.47426 0.07691,0.20722 0.21363,0.35249 0.138859,0.14313 0.333262,0.22004 0.194403,0.0748 0.433668,0.0748 0.170904,0 0.30549,-0.0363 0.134587,-0.0363 0.262765,-0.0983 V 136.091 h -0.388806 q -0.05554,0 -0.08759,-0.0299 -0.02991,-0.032 -0.02991,-0.0769 v -0.32471 z" />
      <path
         id="path916"
         style="font-style:normal;font-variant:normal;font-weight:bold;font-stretch:normal;font-family:Lato;-inkscape-font-specification:'Lato Bold';fill:#000000;stroke-width:0.1068148"
         d="m 79.555914,136.91772 q 0,-0.0662 0.0235,-0.12605 0.02564,-0.0598 0.06836,-0.10254 0.04273,-0.0427 0.102542,-0.0684 0.05982,-0.0256 0.128177,-0.0256 0.06836,0 0.126042,0.0256 0.05982,0.0256 0.102542,0.0684 0.04486,0.0427 0.0705,0.10254 0.02563,0.0598 0.02563,0.12605 0,0.0684 -0.02563,0.12817 -0.02564,0.0577 -0.0705,0.10041 -0.04273,0.0427 -0.102542,0.0662 -0.05768,0.0256 -0.126042,0.0256 -0.06836,0 -0.128177,-0.0256 -0.05982,-0.0235 -0.102542,-0.0662 -0.04273,-0.0427 -0.06836,-0.10041 -0.0235,-0.0598 -0.0235,-0.12817 z" />
    </g>
    <g
       transform="matrix(6.9526709,0,0,6.9526709,-136.68482,-776.03121)"
       id="text879"
       style="font-style:normal;font-weight:normal;font-size:10.58333302px;line-height:1.25;font-family:sans-serif;letter-spacing:0px;word-spacing:0px;fill:#000000;fill-opacity:1;stroke:none;stroke-width:0.26458332"
       aria-label="W">
      <path
         id="path881"
         style="font-style:normal;font-variant:normal;font-weight:bold;font-stretch:normal;font-family:Lato;-inkscape-font-specification:'Lato Bold';stroke-width:0.26458332"
         d="m 36.439861,104.7365 -2.375958,7.65175 h -1.285875 l -1.672167,-5.22816 c -0.04586,-0.127 -0.08819,-0.28222 -0.127,-0.46567 -0.02117,0.0882 -0.04233,0.1711 -0.0635,0.24871 -0.02117,0.0776 -0.0441,0.14993 -0.06879,0.21696 l -1.688042,5.22816 H 27.867362 L 24.674031,102.0812 h 1.190625 c 0.123472,0 0.225777,0.03 0.306916,0.09 0.08467,0.0565 0.141111,0.13408 0.169334,0.23283 l 2.124415,7.2326 c 0.02822,0.11289 0.05468,0.23636 0.07938,0.37041 0.02822,0.13053 0.05644,0.26811 0.08467,0.41275 0.02822,-0.14817 0.05821,-0.28751 0.08996,-0.41804 0.03528,-0.13053 0.07232,-0.25223 0.111125,-0.36512 l 1.502833,-4.5773 c 0.02822,-0.0811 0.0829,-0.15522 0.164042,-0.22225 0.08467,-0.067 0.186972,-0.10054 0.306916,-0.10054 h 0.418042 c 0.123472,0 0.224014,0.03 0.301625,0.09 0.07761,0.06 0.13582,0.13761 0.174625,0.23283 l 1.497541,4.5773 c 0.07408,0.21872 0.141111,0.47095 0.201084,0.7567 0.04586,-0.27869 0.09701,-0.53093 0.153458,-0.7567 l 1.30175,-4.5773 c 0.02117,-0.0882 0.07408,-0.16404 0.15875,-0.22754 0.08819,-0.0635 0.192264,-0.0952 0.312208,-0.0952 z" />
    </g>
  </g>
  <g
     transform="translate(0,250.63867)"
     id="layer2" />
</svg>
